<svg xmlns="http://www.w3.org/2000/svg" xmlns:xlink="http://www.w3.org/1999/xlink" viewBox="0 0 1000 1000"><defs><style>.cls-1{isolation:isolate;}.cls-2{fill:#45120c;}.cls-3{fill:#737373;}.cls-4{fill:url(#linear-gradient);}.cls-5{fill:#f27769;}.cls-6{fill:#2a0f0f;}.cls-7{fill:url(#linear-gradient-2);}.cls-8,.cls-9{opacity:0.25;mix-blend-mode:multiply;}.cls-8{fill:url(#linear-gradient-3);}.cls-9{fill:url(#linear-gradient-4);}.cls-10{fill:url(#linear-gradient-5);}.cls-11{fill:url(#linear-gradient-6);}.cls-12{fill:url(#linear-gradient-7);}.cls-13{fill:url(#linear-gradient-8);}.cls-14{fill:url(#linear-gradient-9);}.cls-15{fill:url(#linear-gradient-10);}.cls-16{fill:url(#linear-gradient-11);}.cls-17{fill:url(#linear-gradient-12);}.cls-18{fill:#fff;}.cls-19{fill:url(#linear-gradient-13);}.cls-20{fill:url(#linear-gradient-14);}.cls-21{fill:url(#linear-gradient-15);}.cls-22{fill:url(#linear-gradient-16);}.cls-23{fill:url(#linear-gradient-17);}</style><linearGradient id="linear-gradient" x1="310.55" y1="113.06" x2="310.55" y2="874.48" gradientTransform="translate(189.9)" gradientUnits="userSpaceOnUse"><stop offset="0" stop-color="#b32024"/><stop offset="0.2" stop-color="#d12c2b"/><stop offset="0.38" stop-color="#e6352f"/><stop offset="0.5" stop-color="#ee3831"/><stop offset="0.77" stop-color="#d42c2b"/><stop offset="1" stop-color="#bb2026"/></linearGradient><linearGradient id="linear-gradient-2" x1="212.73" y1="526.87" x2="213.57" y2="877.61" gradientTransform="translate(189.9)" gradientUnits="userSpaceOnUse"><stop offset="0" stop-color="#311110"/><stop offset="0.14" stop-color="#240d0c"/><stop offset="0.43" stop-color="#100605"/><stop offset="0.71" stop-color="#040101"/><stop offset="1"/></linearGradient><linearGradient id="linear-gradient-3" x1="140.58" y1="369.82" x2="36.32" y2="223.29" gradientTransform="translate(189.9)" gradientUnits="userSpaceOnUse"><stop offset="0" stop-color="#fff"/><stop offset="0.08" stop-color="#f6f6f6"/><stop offset="0.23" stop-color="#ddd"/><stop offset="0.4" stop-color="#b3b3b3"/><stop offset="0.61" stop-color="#7a7a7a"/><stop offset="0.85" stop-color="#333"/><stop offset="1"/></linearGradient><linearGradient id="linear-gradient-4" x1="638.06" y1="369.83" x2="533.8" y2="223.29" gradientTransform="matrix(-1, 0, 0, 1, 1310.07, 0)" xlink:href="#linear-gradient-3"/><linearGradient id="linear-gradient-5" x1="-106.49" y1="616.98" x2="-87.13" y2="616.98" gradientTransform="translate(189.9)" gradientUnits="userSpaceOnUse"><stop offset="0.41" stop-color="#fff"/><stop offset="0.52" stop-color="#fbfbfb"/><stop offset="0.64" stop-color="#eeeff0"/><stop offset="0.77" stop-color="#d9dbdd"/><stop offset="0.89" stop-color="#bcbfc3"/><stop offset="1" stop-color="#9b9fa5"/></linearGradient><linearGradient id="linear-gradient-6" x1="716.97" y1="619.57" x2="736.33" y2="619.57" xlink:href="#linear-gradient-5"/><linearGradient id="linear-gradient-7" x1="449.36" y1="161.51" x2="438.61" y2="184.22" xlink:href="#linear-gradient-5"/><linearGradient id="linear-gradient-8" x1="683.52" y1="319.94" x2="665.64" y2="338.79" xlink:href="#linear-gradient-5"/><linearGradient id="linear-gradient-9" x1="560.94" y1="161.51" x2="550.19" y2="184.22" gradientTransform="matrix(-1, 0, 0, 1, 922.6, 0)" xlink:href="#linear-gradient-5"/><linearGradient id="linear-gradient-10" x1="795.12" y1="319.94" x2="777.23" y2="338.79" gradientTransform="matrix(-1, 0, 0, 1, 922.6, 0)" xlink:href="#linear-gradient-5"/><linearGradient id="linear-gradient-11" x1="-2.68" y1="856.27" x2="-2.68" y2="876.19" xlink:href="#linear-gradient-5"/><linearGradient id="linear-gradient-12" x1="529.64" y1="857.1" x2="529.64" y2="876.19" xlink:href="#linear-gradient-5"/><linearGradient id="linear-gradient-13" x1="193.17" y1="388.43" x2="193.44" y2="471.48" xlink:href="#linear-gradient-2"/><linearGradient id="linear-gradient-14" x1="427.67" y1="387.68" x2="427.94" y2="470.73" xlink:href="#linear-gradient-2"/><linearGradient id="linear-gradient-15" x1="420.83" y1="564.03" x2="420.29" y2="858.35" gradientTransform="translate(189.9)" gradientUnits="userSpaceOnUse"><stop offset="0" stop-color="#ee3831"/><stop offset="0.54" stop-color="#d42c2b"/><stop offset="1" stop-color="#bb2026"/></linearGradient><linearGradient id="linear-gradient-16" x1="-8.85" y1="710.51" x2="141.72" y2="710.51" xlink:href="#linear-gradient-5"/><linearGradient id="linear-gradient-17" x1="2.24" y1="553.64" x2="99.88" y2="858.12" xlink:href="#linear-gradient-15"/></defs><g class="cls-1"><g id="Layer_1" data-name="Layer 1"><rect class="cls-2" x="53.56" y="396.4" width="35.12" height="34.18"/><path class="cls-3" d="M89.49,431.38H52.77V395.63H89.49Zm-35.12-1.61H87.89V397.21H54.37Z"/><rect class="cls-2" x="912.31" y="396.4" width="35.09" height="34.18"/><path class="cls-3" d="M948.21,431.38H911.49V395.63h36.72Zm-35.11-1.61h33.51V397.21H913.1Z"/><polygon class="cls-4" points="906.87 862 94.03 862 94.03 372.1 227.32 241.7 500.46 111.82 767.8 238.21 906.87 372.1 906.87 862"/><rect class="cls-5" x="142.44" y="317.88" width="5.7" height="544.25"/><rect class="cls-5" x="196.52" y="269.05" width="5.71" height="593.08"/><rect class="cls-5" x="250.59" y="218.97" width="5.71" height="643.17"/><rect class="cls-5" x="304.67" y="197.38" width="5.7" height="664.75"/><rect class="cls-5" x="358.74" y="172.6" width="5.72" height="689.54"/><rect class="cls-5" x="412.81" y="140.47" width="5.71" height="721.67"/><rect class="cls-5" x="466.91" y="112.43" width="5.71" height="749.71"/><rect class="cls-5" x="520.99" y="112.43" width="5.71" height="749.71"/><rect class="cls-5" x="575.05" y="140.47" width="5.73" height="721.67"/><rect class="cls-5" x="629.15" y="164.77" width="5.7" height="697.37"/><rect class="cls-5" x="683.23" y="190.14" width="5.7" height="672"/><rect class="cls-5" x="737.3" y="223.53" width="5.7" height="638.6"/><rect class="cls-5" x="791.37" y="261.89" width="5.73" height="600.24"/><rect class="cls-5" x="845.46" y="307.8" width="5.7" height="554.33"/><rect class="cls-6" x="148.12" y="313.69" width="1.62" height="537.67"/><rect class="cls-6" x="202.22" y="265.82" width="1.61" height="586.11"/><rect class="cls-6" x="256.3" y="227.05" width="1.6" height="625.45"/><rect class="cls-6" x="310.37" y="195.05" width="1.59" height="658.04"/><rect class="cls-6" x="364.45" y="170.48" width="1.61" height="683.17"/><rect class="cls-6" x="418.52" y="149.89" width="1.61" height="704.35"/><rect class="cls-6" x="472.62" y="113.97" width="1.59" height="740.84"/><rect class="cls-6" x="526.7" y="113.97" width="1.59" height="741.39"/><rect class="cls-6" x="580.79" y="140.57" width="1.61" height="715.36"/><rect class="cls-6" x="634.84" y="177.17" width="1.62" height="679.35"/><rect class="cls-6" x="688.93" y="197.38" width="1.61" height="659.72"/><rect class="cls-6" x="743.01" y="223.64" width="1.61" height="634.03"/><rect class="cls-6" x="797.09" y="262.08" width="1.59" height="596.17"/><rect class="cls-6" x="851.16" y="307.89" width="1.61" height="550.92"/><path class="cls-3" d="M907.67,862.79H93.25v-491l.23-.24L227,241,500.46,110.92,768.35,237.64,907.67,371.75ZM94.84,861.2H906.06V372.43L767.33,238.9,500.46,112.71,227.79,242.38,94.84,372.43Z"/><rect class="cls-7" x="285.17" y="530" width="235.76" height="347.77"/><polygon class="cls-8" points="501.24 112.2 500.46 111.82 227.32 241.7 94.03 372.1 94.03 535.12 499.65 284.78 501.24 285.67 501.24 112.2"/><polygon class="cls-9" points="501.24 112.2 502.06 111.82 775.17 241.7 908.47 372.1 908.47 535.12 502.86 284.78 501.24 285.67 501.24 112.2"/><rect class="cls-10" x="83.42" y="370.49" width="19.36" height="492.97"/><path class="cls-3" d="M103.56,864.27h-21V369.69h21Zm-19.37-1.62H102V371.31H84.19Z"/><rect class="cls-11" x="906.87" y="373.09" width="19.36" height="492.97"/><path class="cls-3" d="M927,866.57h-21V372h21ZM907.67,865h17.76V373.6H907.67Z"/><polygon class="cls-12" points="778.09 229.26 500.46 93.69 499.54 107.56 500.46 122.85 758.82 246.4 770.85 239.33 778.09 229.26"/><polygon class="cls-13" points="778.09 229.26 758.82 246.4 948.19 430.29 970.79 411.65 778.09 229.26"/><polygon class="cls-14" points="222.82 229.26 500.46 93.69 501.82 107.33 500.46 122.85 242.09 246.4 230.07 239.33 222.82 229.26"/><polygon class="cls-15" points="222.82 229.26 242.09 246.4 52.72 430.29 30.12 411.65 222.82 229.26"/><path class="cls-3" d="M948.14,431.38l-.51-.5L758.34,247,500.46,123.75,242.56,247,52.75,431.38l-23.84-19.7.66-.61,192.9-182.52,278-135.75.34.16L778.62,228.69,972,411.68ZM500.46,122l.34.17L759.37,245.81,948.23,429.22l21.36-17.62-192-181.66L500.46,94.57,223.31,229.94,31.32,411.6l21.34,17.62L241.75,245.68Z"/><path class="cls-16" d="M70.59,855.85v20.42H303.86V855.85Z"/><path class="cls-17" d="M930.32,855.85H508.77v20.42H930.32Z"/><path class="cls-3" d="M931.11,855H508.77v1.61H929.53v18.84H508.77v1.6H931.11Z"/><path class="cls-3" d="M71.38,875.48V856.64H303.86V855H69.78v22.05H303.86v-1.6Z"/><rect class="cls-18" x="275.19" y="374.77" width="216.02" height="109.79"/><path class="cls-3" d="M492,485.35H274.38V374H492Zm-216-1.59H490.42V375.58H276Z"/><rect class="cls-19" x="288.36" y="388.25" width="189.69" height="82.83"/><path class="cls-3" d="M478.86,471.89H287.57V387.44H478.86Zm-189.71-1.61H477.24V389H289.15Z"/><rect class="cls-18" x="509.7" y="374.77" width="216.03" height="109.79"/><path class="cls-3" d="M726.51,485.35H508.88V374H726.51Zm-216-1.59H724.91V375.58H510.49Z"/><rect class="cls-20" x="522.86" y="388.25" width="189.69" height="82.83"/><path class="cls-3" d="M713.36,471.89H522.06V387.44h191.3Zm-189.71-1.61H711.76V389H523.65Z"/><rect class="cls-18" x="269.19" y="516.03" width="462.53" height="24.95"/><path class="cls-3" d="M732.53,541.79H268.38V515.26H732.53ZM270,540.18H730.93V516.84H270Z"/><rect class="cls-18" x="500.38" y="542.48" width="220.17" height="335.29"/><path class="cls-3" d="M721.35,878.57H499.59V541.68H721.35ZM501.18,877H719.74V543.27H501.18Z"/><rect class="cls-21" x="521.31" y="562.9" width="178.31" height="294.44"/><path class="cls-3" d="M700.43,858.14H520.51v-296H700.43Zm-178.31-1.61H698.83V563.71H522.12Z"/><polygon class="cls-18" points="527.84 857.35 699.62 582.9 699.62 562.9 694.76 562.9 521.31 840.02 521.31 857.35 527.84 857.35"/><path class="cls-3" d="M528.29,858.14h-7.78V839.8l.13-.2L694.33,562.11h6.1v21l-.14.2Zm-6.17-1.61h5.27L698.83,582.68v-19h-3.62L522.12,840.26Z"/><polygon class="cls-18" points="693.09 857.35 521.31 582.9 521.31 562.9 526.16 562.9 699.62 840.02 699.62 857.35 693.09 857.35"/><path class="cls-3" d="M700.43,858.14h-7.79l-.23-.39L520.51,583.14v-21h6.1l.24.36L700.43,839.8Zm-6.9-1.61h5.3V840.26L525.73,563.71h-3.61v19Z"/><polygon class="cls-22" points="309.55 543.87 181.05 515.14 181.05 905.89 309.55 877.58 309.55 543.87"/><path class="cls-3" d="M180.26,906.87V514.15l130.1,29.08v335Zm1.6-390.73V904.88l126.89-27.94V544.53Z"/><polygon class="cls-23" points="293.06 563.43 196.82 547.91 196.82 873.11 293.06 857.83 293.06 563.43"/><path class="cls-3" d="M196,874.05V547l97.83,15.78V858.51l-.67.11Zm1.61-325.2V872.17l94.62-15v-293Z"/><polygon class="cls-18" points="293.06 563.43 287.78 562.57 196.82 854.74 196.82 873.11 203.12 872.32 293.06 581.05 293.06 563.43"/><path class="cls-3" d="M196,874l0-19.5,91.15-292.84,6.64,1.07,0,18.54L203.72,873.07Zm1.61-19.14V872.2l4.86-.6,89.76-290.67V564.11l-3.94-.62Z"/><polygon class="cls-18" points="293.06 842.43 202.13 548.56 196.82 547.91 196.82 569.92 287.84 858.64 293.06 857.83 293.06 842.43"/><path class="cls-3" d="M287.29,859.53l-.2-.66L196,569.92V547l6.73.81.15.52,91,294.09v16.1ZM197.64,569.78l90.77,288,3.85-.59V842.56L201.52,549.3l-3.88-.47Z"/><polygon class="cls-18" points="167.24 514.88 181.05 515.14 181.05 905.89 167.24 905.16 167.24 514.88"/><path class="cls-3" d="M181.86,906.74l-15.42-.83V514.05l15.42.3ZM168,904.41l12.24.63V515.93L168,515.71Z"/></g></g></svg>