<svg xmlns="http://www.w3.org/2000/svg" viewBox="0 0 144 144"><defs><style>.cls-1{fill:#b7202e;}.cls-2{fill:#231f20;}</style></defs><path class="cls-1" d="M36.91,70.86a6.69,6.69,0,0,0,1-3.62A6.36,6.36,0,0,0,35,61.78c-2-1.36-4.85-2.05-8.68-2.05H11V88.46H27.12q5.91,0,9-2.07a6.62,6.62,0,0,0,3.12-5.85,6.93,6.93,0,0,0-1.4-4.35,8.63,8.63,0,0,0-3.94-2.75A7.24,7.24,0,0,0,36.91,70.86ZM20.47,66.5H25c2.1,0,3.16.72,3.16,2.14S27.09,70.77,25,70.77H20.47ZM26.3,81.69H20.47V77.18H26.3c2.13,0,3.2.75,3.2,2.25S28.43,81.69,26.3,81.69Z"/><path class="cls-1" d="M50.19,59.73,37.63,88.46h9.85l1.93-5H60.33l1.92,5h10L59.71,59.73Zm1.89,16.75,2.79-7.23,2.79,7.23Z"/><path class="cls-1" d="M99.36,75.94a10.13,10.13,0,0,0,1.39-5.37,10.29,10.29,0,0,0-1.6-5.75,10.13,10.13,0,0,0-4.55-3.77,16.92,16.92,0,0,0-6.94-1.32H73.83V88.46h9.69V81.24h2.62L91,88.46h10.34l-6-8.86A9.86,9.86,0,0,0,99.36,75.94ZM90,73.05a4.3,4.3,0,0,1-3,.88H83.52V67.2h3.53a4.35,4.35,0,0,1,3,.88,3.61,3.61,0,0,1,0,5Z"/><polygon class="cls-1" points="124.77 88.46 132.73 88.46 132.73 59.73 123.29 59.73 123.29 72.78 112.37 59.73 104.41 59.73 104.41 88.46 113.85 88.46 113.85 75.41 124.77 88.46"/><polygon class="cls-1" points="31.27 90.59 25.36 100.53 19.49 90.59 9.27 90.59 20.1 108.78 20.1 119.32 29.79 119.32 29.79 108.9 40.62 90.59 31.27 90.59"/><path class="cls-1" d="M59.71,90.59H50.19L37.63,119.32h9.85l1.93-5H60.33l1.92,5h10Zm-7.63,16.75,2.79-7.23,2.79,7.23Z"/><path class="cls-1" d="M99.36,106.81a10.32,10.32,0,0,0-4.76-14.9,16.92,16.92,0,0,0-6.94-1.32H73.83v28.73h9.69V112.1h2.62L91,119.32h10.34l-6-8.86A9.84,9.84,0,0,0,99.36,106.81ZM90,103.91a4.3,4.3,0,0,1-3,.88H83.52V98.06h3.53A4.3,4.3,0,0,1,90,99a3.6,3.6,0,0,1,0,5Z"/><path class="cls-1" d="M127,92.34a19.47,19.47,0,0,0-8.48-1.75H104.31v28.73h14.16a19.61,19.61,0,0,0,8.48-1.74,13.28,13.28,0,0,0,5.7-5,15.37,15.37,0,0,0,0-15.27A13.26,13.26,0,0,0,127,92.34ZM123.05,110a6.93,6.93,0,0,1-5,1.78H114V98.14h4.06a6.93,6.93,0,0,1,5,1.79,7.73,7.73,0,0,1,0,10.06Z"/><polygon class="cls-2" points="112.97 30.57 72.28 13.61 32.29 30.56 1.6 57.32 6.68 63.14 36.43 37.18 72.3 21.98 108.76 37.17 137.2 63.08 142.4 57.38 112.97 30.57"/><path class="cls-2" d="M82.58,31H61.36V55.41H82.58ZM69.64,48l-5.71,3.77V44.19Zm-2.72-4.88H77l-5,3.34Zm5,6.42,5,3.34H66.92ZM74.3,48,80,44.19v7.54ZM80,33.55v7H63.93v-7Z"/><path class="cls-2" d="M31.15,126.51c0,2.84-2,4.42-5.15,4.42H22v-.19h1v-7.8l-1.06-.64h4.23C29.31,122.3,31.15,123.77,31.15,126.51Zm-2.76,0c0-2.63-.89-4-2.46-4h-.3v8.25h.19C27.37,130.74,28.39,129.18,28.39,126.52Z"/><path class="cls-2" d="M46.26,130.74h1v-7.8l-1.07-.64h4.78l-1.07.64v7.8h1v.19H46.26Z"/><path class="cls-2" d="M75,122.3l-1.08.62v8h-.63l-6.15-7.24.48,7.05h1.45v.19h-3v-.19h.66L66.9,123l-1.15-.69h3.66l4.27,5.23L73,122.92l-1.08-.62Z"/><path class="cls-2" d="M93.47,122.49v3.84a2.71,2.71,0,0,0,2-1.59h0v3.35h0a2.63,2.63,0,0,0-2-1.6v4.25c1.41,0,2.62-.72,3.75-2.81h0v3H89.87v-.19h1v-7.8l-1.07-.64h7.47v3h0C96.09,123.23,94.88,122.5,93.47,122.49Z"/><path class="cls-2" d="M122,130.74v.19h-3.42l-2.29-4v3.77h1v.19h-4.61v-.19h1v-7.8l-1.07-.64h4.52c2.36,0,3.72.7,3.72,2.14a2.27,2.27,0,0,1-2,2.26l2.56,4Zm-5.71-8.25v4.26c1.48-.09,1.78-.8,1.78-2.28,0-1.21-.46-2-1.39-2Z"/></svg>