<svg xmlns="http://www.w3.org/2000/svg" viewBox="0 0 338.95 143.08"><defs><style>.cls-1{fill:#b7202e;}.cls-2{fill:#231f20;}</style></defs><path class="cls-1" d="M44,92a8.49,8.49,0,0,0,1.27-4.6,8.09,8.09,0,0,0-3.73-7q-3.73-2.61-11-2.61H11v36.56H31.53q7.52,0,11.49-2.64a8.42,8.42,0,0,0,4-7.44,8.73,8.73,0,0,0-1.78-5.53,10.86,10.86,0,0,0-5-3.5A9.32,9.32,0,0,0,44,92ZM23.07,86.47h5.74q4,0,4,2.71c0,1.82-1.34,2.72-4,2.72H23.07Zm7.41,19.32H23.07v-5.74h7.41q4.08,0,4.08,2.87C34.56,104.84,33.2,105.79,30.48,105.79Z"/><path class="cls-1" d="M60.88,77.85l-16,36.56H57.43L59.89,108H73.78l2.46,6.37H89L73,77.85Zm2.4,21.31L66.84,90l3.55,9.19Z"/><path class="cls-1" d="M123.45,98.48a12.87,12.87,0,0,0,1.78-6.84,12.68,12.68,0,0,0-7.83-12.12,21.7,21.7,0,0,0-8.83-1.67H91v36.56h12.32v-9.19h3.35l6.21,9.19H126l-7.67-11.28A12.55,12.55,0,0,0,123.45,98.48Zm-11.9-3.68a5.5,5.5,0,0,1-3.77,1.12h-4.49V87.36h4.49a5.5,5.5,0,0,1,3.77,1.12,4.62,4.62,0,0,1,0,6.32Z"/><polygon class="cls-1" points="155.78 114.41 165.92 114.41 165.92 77.85 153.9 77.85 153.9 94.46 140.01 77.85 129.88 77.85 129.88 114.41 141.89 114.41 141.89 97.8 155.78 114.41"/><polygon class="cls-1" points="196.4 77.85 188.88 90.49 181.41 77.85 168.41 77.85 182.19 100.99 182.19 114.41 194.52 114.41 194.52 101.14 208.31 77.85 196.4 77.85"/><path class="cls-1" d="M232.6,77.85H220.48l-16,36.56H217l2.46-6.37h13.89l2.46,6.37h12.74Zm-9.72,21.31L226.43,90,230,99.16Z"/><path class="cls-1" d="M283.05,98.48a13.13,13.13,0,0,0-6.06-19,21.62,21.62,0,0,0-8.82-1.67H250.56v36.56h12.33v-9.19h3.34l6.22,9.19h13.16l-7.68-11.28A12.52,12.52,0,0,0,283.05,98.48ZM271.14,94.8a5.47,5.47,0,0,1-3.76,1.12h-4.49V87.36h4.49a5.47,5.47,0,0,1,3.76,1.12,4.59,4.59,0,0,1,0,6.32Z"/><path class="cls-1" d="M318.16,80.07a24.88,24.88,0,0,0-10.79-2.22h-18v36.56h18a24.88,24.88,0,0,0,10.79-2.22,16.9,16.9,0,0,0,7.26-6.34,19.58,19.58,0,0,0,0-19.43A16.92,16.92,0,0,0,318.16,80.07Zm-5,22.46a8.83,8.83,0,0,1-6.35,2.27h-5.17V87.46h5.17a8.83,8.83,0,0,1,6.35,2.27,8.46,8.46,0,0,1,2.37,6.4A8.46,8.46,0,0,1,313.2,102.53Z"/><polygon class="cls-2" points="221.61 34.37 169.83 12.8 118.94 34.36 79.89 68.42 86.35 75.82 124.21 42.79 169.86 23.45 216.26 42.78 252.44 75.75 259.06 68.49 221.61 34.37"/><path class="cls-2" d="M183,34.89H156V66h27ZM166.51,56.51l-7.26,4.8v-9.6Zm-3.45-6.21H175.9l-6.42,4.25Zm6.42,8.17,6.42,4.24H163.06Zm3-2,7.26-4.8v9.6Zm7.26-18.34V47H159.25V38.17Z"/><path class="cls-2" d="M117.49,124.65c0,3.61-2.52,5.63-6.55,5.63h-5V130h1.22v-9.92l-1.36-.82h5.39C115.16,119.29,117.49,121.17,117.49,124.65Zm-3.51,0c0-3.34-1.13-5.13-3.13-5.13h-.38V130h.24C112.68,130,114,128.05,114,124.66Z"/><path class="cls-2" d="M136.72,130h1.22v-9.92l-1.35-.82h6.07l-1.36.82V130h1.22v.25h-5.8Z"/><path class="cls-2" d="M173.29,119.29l-1.37.79v10.2h-.8l-7.83-9.22.61,9h1.85v.25H161.9V130h.84l.25-9.85-1.47-.89h4.66l5.43,6.65-.85-5.86-1.38-.79Z"/><path class="cls-2" d="M196.79,119.53v4.89a3.41,3.41,0,0,0,2.6-2h0v4.26h0a3.33,3.33,0,0,0-2.6-2V130c1.81,0,3.35-.91,4.78-3.57h0v3.82h-9.37V130h1.22v-9.92l-1.36-.82h9.51v3.82h0C200.14,120.48,198.6,119.55,196.79,119.53Z"/><path class="cls-2" d="M233.12,130v.25h-4.35l-2.92-5V130h1.3v.25h-5.87V130h1.22v-9.92l-1.36-.82h5.75c3,0,4.73.9,4.73,2.73a2.88,2.88,0,0,1-2.48,2.87l3.25,5.14Zm-7.27-10.5V125c1.88-.1,2.26-1,2.26-2.9,0-1.54-.58-2.52-1.77-2.52Z"/></svg>